<svg width="77" height="37" viewBox="0 0 77 37" fill="none" xmlns="http://www.w3.org/2000/svg">
<path d="M12.721 2.55664C5.38771 7.05664 -4.87896 19.6566 12.721 34.0566M23.2209 9.55664C18.3876 11.7233 11.6209 18.9566 23.2209 30.5566" stroke="#A2425E" stroke-width="6"/>
<path d="M48.38 16.0566H46.2664C46.1414 15.4487 45.9227 14.9146 45.6102 14.4544C45.3033 13.9941 44.9283 13.6078 44.4852 13.2953C44.0477 12.9771 43.5619 12.7385 43.0278 12.5794C42.4937 12.4203 41.9369 12.3407 41.3573 12.3407C40.3005 12.3407 39.3431 12.6078 38.4852 13.1419C37.6329 13.676 36.9539 14.4629 36.4482 15.5027C35.9482 16.5424 35.6982 17.818 35.6982 19.3294C35.6982 20.8407 35.9482 22.1163 36.4482 23.1561C36.9539 24.1958 37.6329 24.9828 38.4852 25.5169C39.3431 26.051 40.3005 26.318 41.3573 26.318C41.9369 26.318 42.4937 26.2385 43.0278 26.0794C43.5619 25.9203 44.0477 25.6845 44.4852 25.372C44.9283 25.0538 45.3033 24.6646 45.6102 24.2044C45.9227 23.7385 46.1414 23.2044 46.2664 22.6021H48.38C48.2209 23.4941 47.9312 24.2924 47.5107 24.997C47.0903 25.7015 46.5675 26.301 45.9425 26.7953C45.3175 27.2839 44.6158 27.6561 43.8374 27.9118C43.0647 28.1674 42.238 28.2953 41.3573 28.2953C39.8687 28.2953 38.5448 27.9316 37.3857 27.2044C36.2266 26.4771 35.3147 25.443 34.6499 24.1021C33.9852 22.7612 33.6528 21.1703 33.6528 19.3294C33.6528 17.4885 33.9852 15.8975 34.6499 14.5566C35.3147 13.2157 36.2266 12.1816 37.3857 11.4544C38.5448 10.7271 39.8687 10.3635 41.3573 10.3635C42.238 10.3635 43.0647 10.4913 43.8374 10.747C44.6158 11.0027 45.3175 11.3777 45.9425 11.872C46.5675 12.3606 47.0903 12.9572 47.5107 13.6618C47.9312 14.3606 48.2209 15.1589 48.38 16.0566ZM53.5342 10.6021V28.0566H51.5228V10.6021H53.5342ZM57.2181 28.0566V14.9657H59.2295V28.0566H57.2181ZM58.2408 12.7839C57.8488 12.7839 57.5107 12.6504 57.2266 12.3833C56.9482 12.1163 56.809 11.7953 56.809 11.4203C56.809 11.0453 56.9482 10.7243 57.2266 10.4572C57.5107 10.1902 57.8488 10.0566 58.2408 10.0566C58.6329 10.0566 58.9681 10.1902 59.2465 10.4572C59.5306 10.7243 59.6727 11.0453 59.6727 11.4203C59.6727 11.7953 59.5306 12.1163 59.2465 12.3833C58.9681 12.6504 58.6329 12.7839 58.2408 12.7839ZM62.9134 32.9657V14.9657H64.8566V17.0453H65.0952C65.243 16.818 65.4475 16.5282 65.7089 16.176C65.9759 15.818 66.3566 15.4998 66.8509 15.2214C67.3509 14.9373 68.0271 14.7953 68.8793 14.7953C69.9816 14.7953 70.9532 15.0708 71.7941 15.622C72.635 16.1731 73.2913 16.9544 73.7629 17.9657C74.2344 18.9771 74.4702 20.1703 74.4702 21.5453C74.4702 22.9316 74.2344 24.1333 73.7629 25.1504C73.2913 26.1618 72.6379 26.9458 71.8026 27.5027C70.9674 28.0538 70.0043 28.3294 68.9134 28.3294C68.0725 28.3294 67.3992 28.1902 66.8935 27.9118C66.3879 27.6277 65.9986 27.3066 65.7259 26.9487C65.4532 26.585 65.243 26.2839 65.0952 26.0453H64.9248V32.9657H62.9134ZM64.8907 21.5112C64.8907 22.4998 65.0356 23.372 65.3254 24.1277C65.6151 24.8777 66.0384 25.4657 66.5952 25.8919C67.1521 26.3123 67.8339 26.5225 68.6407 26.5225C69.4816 26.5225 70.1833 26.301 70.7458 25.8578C71.314 25.4089 71.7401 24.8066 72.0242 24.051C72.314 23.2896 72.4589 22.443 72.4589 21.5112C72.4589 20.5907 72.3168 19.7612 72.0327 19.0225C71.7543 18.2782 71.331 17.6902 70.7629 17.2583C70.2004 16.8208 69.493 16.6021 68.6407 16.6021C67.8225 16.6021 67.135 16.8095 66.5782 17.2243C66.0214 17.6333 65.6009 18.2072 65.3168 18.9458C65.0327 19.6788 64.8907 20.5339 64.8907 21.5112Z" fill="#A2425E"/>
</svg>
